<?xml version="1.0" encoding="UTF-8" standalone="no"?><!DOCTYPE svg PUBLIC "-//W3C//DTD SVG 1.1//EN" "http://www.w3.org/Graphics/SVG/1.1/DTD/svg11.dtd"><svg width="100%" height="100%" viewBox="0 0 144 144" version="1.1" xmlns="http://www.w3.org/2000/svg" xmlns:xlink="http://www.w3.org/1999/xlink" xml:space="preserve" xmlns:serif="http://www.serif.com/" style="fill-rule:evenodd;clip-rule:evenodd;stroke-linejoin:round;stroke-miterlimit:2;"><path id="Background" d="M142.259,37.741l0,68.518c0,19.869 -16.131,36 -36,36l-68.518,0c-19.869,0 -36,-16.131 -36,-36l0,-68.518c0,-19.869 16.131,-36 36,-36l68.518,0c19.869,0 36,16.131 36,36Z" style="fill:#09090b;"/><g id="X"><path d="M90.226,88.296l31.735,42.671l-12.437,0l-25.731,-34.308l6.432,-8.363l0,0Zm19.298,-75.263l12.437,-0l-31.95,42.886l-6.004,-8.577l25.517,-34.308Z" style="fill:#858ea2;fill-rule:nonzero;"/><path d="M34.476,13.033l43.743,58.967l-43.743,58.967l-12.437,0l43.742,-58.967l-43.742,-58.967l12.437,0Z" style="fill:#fa0019;fill-rule:nonzero;"/></g></svg>